# xmcd
#
# Track frame offsets:
#	150
#	11792
#	23469
#	38053
#	51285
#	69302
#	81078
#	95518
#	108517
#	127739
#	140910
#	150285
#	162775
#	178673
#	193689
#	205268
#	217799
#	228674
#
# Disc length: 3295 seconds
#
# Revision: 1
# Processed by: cddbd v1.5.2PL0 Copyright (c) Steve Scherf et al.
# Submitted via: EasyCDDAExtractor 6.2.0.3
#
DISCID=e80cdd12
DTITLE=Various Artist - Country "My Sounds" CD2
DYEAR=2007
DGENRE=Country
TTITLE0=Chris Ledoux and Garth Brooks - Watcha gonna do with a cowboy
TTITLE1=Palomino Road - Why baby why
TTITLE2=River Road - Wishfull thinkin'
TTITLE3=Suzy Bogguss - I don't want to set the world on fire
TTITLE4=Eddie Rabbit and Crystal Gayle - You and I
TTITLE5=Lacy J. Dalton - Love hurts
TTITLE6=Tanya Tucker - Just another love
TTITLE7=Dr.Hook - A little bit more
TTITLE8=Kenny Rogers - She believes in me
TTITLE9=Crystal Gayle - You've been talking in your sleep
TTITLE10=Bobbie Gentry - Son of a preacher man
TTITLE11=Faron Young - Sweet dreams
TTITLE12=Billie Jo Spears - Blanket on the ground
TTITLE13=Don Williams - Send her roses
TTITLE14=Glen Campbell and Bobbie Gentry - All I have to do is dream 
TTITLE15=Jerry Wallace - In the misty moonlight
TTITLE16=Willie Nelson - Hello walls
TTITLE17=Juice Newton - Angel of the morning
EXTD=
EXTT0=
EXTT1=
EXTT2=
EXTT3=
EXTT4=
EXTT5=
EXTT6=
EXTT7=
EXTT8=
EXTT9=
EXTT10=
EXTT11=
EXTT12=
EXTT13=
EXTT14=
EXTT15=
EXTT16=
EXTT17=
PLAYORDER=
